<?xml version="1.0" encoding="UTF-8" standalone="no"?>
<!-- Created with Inkscape (http://www.inkscape.org/) -->

<svg
   version="1.1"
   id="svg1"
   width="128.95999"
   height="79.213959"
   viewBox="0 0 128.95999 79.213959"
   sodipodi:docname="190a.svg"
   inkscape:version="1.3.2 (091e20ef0f, 2023-11-25)"
   xmlns:inkscape="http://www.inkscape.org/namespaces/inkscape"
   xmlns:sodipodi="http://sodipodi.sourceforge.net/DTD/sodipodi-0.dtd"
   xmlns="http://www.w3.org/2000/svg"
   xmlns:svg="http://www.w3.org/2000/svg">
  <defs
     id="defs1" />
  <sodipodi:namedview
     id="namedview1"
     pagecolor="#ffffff"
     bordercolor="#000000"
     borderopacity="0.25"
     inkscape:showpageshadow="2"
     inkscape:pageopacity="0.0"
     inkscape:pagecheckerboard="0"
     inkscape:deskcolor="#d1d1d1"
     showgrid="false"
     inkscape:zoom="7.6569909"
     inkscape:cx="65.561003"
     inkscape:cy="38.069785"
     inkscape:window-width="1920"
     inkscape:window-height="1011"
     inkscape:window-x="0"
     inkscape:window-y="0"
     inkscape:window-maximized="1"
     inkscape:current-layer="layer1" />
  <g
     inkscape:groupmode="layer"
     id="layer1"
     inkscape:label="Layer 1"
     transform="translate(-1.9199999,-3.6745871)">
    <path
       style="fill:#000000"
       d="M 1.9199999,51.238965 V 19.58938 l 0.88,-0.229306 c 0.9597048,-0.250075 2.5956775,-0.401503 5.8972632,-0.545861 2.1349059,-0.09335 2.1385089,-0.09204 3.2666789,1.186169 0.621179,0.703789 1.135411,1.459617 1.142737,1.679617 0.01607,0.482515 0.639526,0.511068 1.770473,0.08108 1.019997,-0.387802 2.509355,0.271619 3.076706,1.362229 0.205058,0.394179 0.414007,0.765368 0.464331,0.824866 0.110158,0.130238 2.081525,-1.235864 2.53816,-1.758873 0.178007,-0.203883 1.11565,-0.77165 2.08365,-1.261705 0.968,-0.490056 2.198294,-1.217677 2.733988,-1.616936 0.535693,-0.399259 2.36228,-1.43702 4.059081,-2.306137 1.696802,-0.869117 3.274507,-1.753544 3.506012,-1.965395 0.479961,-0.439212 5.284285,-3.019575 10.056854,-5.4014529 3.244892,-1.6194502 4.939162,-2.0856739 9.404063,-2.5877795 2.784293,-0.3131108 10.245706,-1.5756545 10.597778,-1.7932471 0.131702,-0.081396 0.933079,-0.2955839 1.78084,-0.475973 0.84776,-0.1803892 1.829382,-0.3962024 2.181382,-0.4795849 3.732162,-0.8840831 6.260139,-0.8566053 21.759999,0.2365204 2.991999,0.2110104 6.663999,0.4038852 8.159999,0.4286106 2.495963,0.041252 3.803775,0.2325445 10.879995,1.5914018 1.32,0.2534815 4.35212,0.5352831 6.73804,0.6262259 6.64206,0.2531721 8.98394,0.6692178 11.83451,2.1024555 3.20298,1.6104282 4.14745,2.7148532 4.14745,4.8498562 0,1.368022 -0.14082,1.738614 -0.94678,2.49149 -0.52073,0.486435 -1.85273,1.227459 -2.96,1.646718 -1.84455,0.698425 -2.41536,0.755139 -6.81322,0.676931 -8.71505,-0.154982 -11.79859,-0.162139 -15.52,-0.03602 -2.024,0.06859 -4.21999,0.01019 -4.879995,-0.129784 l -1.2,-0.2545 v 1.116209 c 0,0.613915 0.285509,1.60011 0.634465,2.191546 1.27106,2.154282 1.55738,7.781154 0.499001,9.806341 -0.626409,1.198616 -2.107637,2.478053 -3.154996,2.725183 l -0.901531,0.212721 0.937081,0.875365 c 0.821977,0.767842 0.965479,1.178411 1.168272,3.342511 0.269723,2.878348 0.09637,3.891506 -1.002156,5.856978 -0.852642,1.525543 -2.274129,2.382145 -3.953043,2.382145 -1.632802,0 -1.910111,0.243677 -1.391203,1.222479 0.483353,0.911739 0.398027,2.814893 -0.27517,6.137521 -0.968615,4.780682 -2.023927,5.591924 -7.280719,5.596851 -1.848,0.0017 -4.678443,-0.185838 -6.289874,-0.416821 -2.119226,-0.303771 -3.358769,-0.330323 -4.48,-0.09597 -0.852569,0.178202 -2.198126,0.460422 -2.990125,0.627156 -0.792,0.166735 -2.422899,0.388335 -3.62422,0.492447 -1.201321,0.104111 -2.641321,0.388221 -3.2,0.631356 -1.055849,0.459501 -2.66564,0.941774 -4.85578,1.454729 -0.704,0.164884 -2.792,0.390682 -4.64,0.501772 -1.848,0.11109 -4.837813,0.422941 -6.64403,0.693003 -2.719039,0.406545 -3.957479,0.429566 -7.19848,0.133811 -4.250943,-0.387918 -5.802378,-0.877208 -10.927355,-3.446264 -2.36773,-1.186899 -3.071513,-1.402705 -4.16,-1.275609 -1.372829,0.160297 -3.667139,0.713874 -3.892444,0.93918 -0.07238,0.07238 0.0079,1.959553 0.178445,4.193708 0.170529,2.234155 0.218814,4.727761 0.1073,5.541345 -0.183252,1.336964 -0.319797,1.528783 -1.419615,1.994274 -0.743967,0.314879 -1.253188,0.76284 -1.31034,1.152705 -0.0734,0.500716 -0.515961,0.72852 -2.060533,1.060639 l -1.967054,0.422963 -0.124411,2.45936 c -0.129779,2.565479 -0.868684,4.648032 -1.832095,5.163634 -0.289954,0.155179 -2.7911839,0.368124 -5.5582875,0.473211 L 1.9199999,82.888549 Z M 6.1969236,81.556292 9.1564577,81.192586 8.5972798,80.036292 C 8.1064181,79.021264 7.3805468,76.310601 6.3797936,71.755405 6.214907,71.004879 6.0799997,69.258984 6.0799997,67.875637 c 0,-1.528844 -0.2032776,-3.064278 -0.5183647,-3.915407 -0.9481412,-2.561166 -0.5421205,-34.093905 0.4740696,-36.81761 0.1523858,-0.408442 0.3828899,-1.462621 0.5122312,-2.342621 0.1564473,-1.064421 0.6086331,-2.1088 1.3508689,-3.12 l 1.1157028,-1.52 H 8.0088947 c -0.553087,0 -2.0053512,0.165103 -3.2272538,0.366896 l -2.221641,0.366897 v 27.803145 c 0,24.418711 0.05843,27.825568 0.4799999,27.987339 0.6211863,0.238372 0.6211863,0.755721 0,0.755721 -0.2986666,0 -0.4799999,0.302222 -0.4799999,0.8 0,0.736349 0.1160743,0.8 1.4588853,0.8 0.8911042,0 1.3819153,0.12454 1.2611145,0.32 -0.1087739,0.176 -0.7652724,0.32 -1.4588853,0.32 -0.9476408,0 -1.2611145,0.128478 -1.2611145,0.516871 0,0.441084 0.263327,0.483971 1.7958874,0.29249 1.1620437,-0.145187 1.7266243,-0.112311 1.5996425,0.09315 -0.1079347,0.174642 -0.9160841,0.416534 -1.7958874,0.537538 -0.8798034,0.121004 -1.5996425,0.350494 -1.5996425,0.509979 0,0.365947 0.070851,0.364511 3.6369237,-0.07373 z m 6.4571774,-1.476295 c 0.276479,-0.66 0.58925,-2.121581 0.695046,-3.247958 l 0.192356,-2.047959 -1.724744,0.228796 c -0.94861,0.125837 -1.8218097,0.38585 -1.9404445,0.577805 -0.3555855,0.575349 1.4368875,5.689316 1.9941365,5.689316 0.154528,0 0.50717,-0.54 0.78365,-1.2 z m -1.56891,-0.821199 c -0.687396,-1.64517 -0.985669,-3.223392 -0.55941,-2.959949 0.19482,0.120405 0.354218,0.467973 0.354218,0.772372 0,0.304399 0.272902,1.088734 0.606448,1.742965 0.333547,0.654232 0.481905,1.266485 0.329685,1.360562 -0.15222,0.09408 -0.481143,-0.3181 -0.730941,-0.91595 z m 0.300807,-1.38644 c -0.271395,-0.707245 -0.04418,-0.872633 0.42394,-0.308583 0.227242,0.27381 0.259194,0.53461 0.07913,0.645895 -0.166104,0.102658 -0.392486,-0.04913 -0.503071,-0.337312 z m 4.214001,-4.637041 c 0.924,-0.207646 1.68,-0.4406 1.68,-0.517676 0,-0.07708 -0.556657,-2.034077 -1.237016,-4.348891 -1.467126,-4.991669 -2.637837,-11.344597 -3.547138,-19.248752 -1.195173,-10.389103 -0.464602,-20.777358 1.7384,-24.718958 0.948044,-1.696235 0.952478,-1.717258 0.310236,-1.470807 -0.272535,0.104582 -1.810591,0.352062 -3.417902,0.549957 l -2.9223853,0.359809 -0.3889163,1.92 c -1.1154591,5.506792 -1.7910203,13.810007 -1.1555553,14.202746 0.2445967,0.151169 0.3738516,2.40796 0.4060426,7.089507 0.025973,3.77726 0.1583808,7.011746 0.2942394,7.187746 0.1358587,0.176 0.335366,1.688 0.4433495,3.36 0.5287528,8.187123 0.9550322,12.173312 1.2885483,12.049365 0.1914537,-0.07115 0.3288468,-0.255366 0.3053179,-0.409366 -0.3729979,-2.44133 -0.4428947,-4.072428 -0.1628398,-3.8 0.1809269,0.176 0.3732069,1.112 0.4272888,2.08 0.077021,1.37859 0.2023517,1.732312 0.5783302,1.632235 1.415949,-0.376894 2.24,-0.395167 2.24,-0.04967 0,0.206363 -0.108,0.308633 -0.24,0.227268 -0.132,-0.08137 -0.672,0.04822 -1.2,0.287966 -0.854447,0.387976 -0.872039,0.421678 -0.16,0.306523 2.401106,-0.388322 3.727411,-0.45265 4.120451,-0.199848 0.294362,0.189332 -0.236325,0.355648 -1.6,0.501435 -2.390029,0.255513 -4.1204505,0.742206 -4.1204505,1.158907 0,0.369082 -0.223681,0.384906 2.8791165,-0.203684 1.446398,-0.274377 2.678476,-0.450207 2.73795,-0.390733 0.435102,0.435103 -0.783385,0.979598 -2.921116,1.305335 -2.0007578,0.304866 -2.550551,0.505592 -2.6387124,0.963377 -0.2966869,1.540571 0.1371674,1.552778 6.2627614,0.176208 z m 4.496869,-7.633979 c -0.08114,-2.815263 -0.247553,-5.218691 -0.369814,-5.340952 -0.122261,-0.122261 -0.440782,-0.0038 -0.707825,0.263238 -0.384766,0.384767 -0.414532,0.672273 -0.143428,1.385333 0.366101,0.962917 0.257621,1.325435 -0.294512,0.984198 -0.187709,-0.11601 -0.34129,-0.70643 -0.34129,-1.312043 0,-0.929858 -0.111982,-1.100435 -0.72,-1.096745 -1.373256,0.0083 -2.183992,0.372829 -2.035872,0.915299 0.07814,0.286182 0.237663,1.222076 0.354494,2.079763 l 0.212419,1.559432 0.45448,-0.87601 C 17.072157,63.070657 17.070683,63.01761 16.48,63.244277 15.819133,63.497876 15.831284,61.883 16.49524,61.219045 c 0.272381,-0.272381 0.541874,-0.442095 0.598874,-0.377143 0.057,0.06495 0.273683,1.303785 0.481519,2.75296 0.207836,1.449176 0.574537,3.392982 0.814891,4.319569 0.240353,0.926588 0.376813,1.744898 0.303242,1.818469 -0.314767,0.314767 -0.621982,-0.481278 -1.137297,-2.946924 -0.407276,-1.948705 -0.554968,-2.316483 -0.572646,-1.425979 -0.0131,0.66 -0.177525,1.2 -0.365385,1.2 -0.364563,0 -0.252762,0.548243 0.57099,2.8 0.471953,1.290103 0.563243,1.36 1.776244,1.36 h 1.27872 z m 25.18313,-2.913142 c 1.232,-0.186519 4.544,-0.460215 7.359999,-0.608213 6.677747,-0.350959 7.580537,-0.564185 8.971586,-2.11896 1.074251,-1.200691 1.107707,-1.316452 1.029376,-3.56177 -0.04453,-1.27641 0.03012,-2.32041 0.165898,-2.32 0.700741,0.0021 1.662804,4.84308 1.078587,5.427297 -0.231263,0.231263 0.03988,0.333448 0.884789,0.333448 0.964592,0 1.178929,-0.102434 1.029446,-0.491981 -0.160064,-0.41712 0.16339,-0.484958 2.125764,-0.445835 2.680747,0.05345 3.930734,-0.204415 4.997708,-1.030981 0.820964,-0.635987 1.956845,-0.793411 1.956845,-0.271203 0,0.176 -0.108,0.302947 -0.24,0.282105 -0.132,-0.02084 -0.456,-0.0043 -0.72,0.0368 -0.790485,0.12301 1.968089,0.603518 3.52,0.613138 1.379236,0.0085 1.291465,-0.04953 -2.08,-1.376492 -1.936,-0.76198 -4.24,-1.490017 -5.119999,-1.617859 -2.473406,-0.359327 -6.239798,-1.453854 -7.920015,-2.301585 -0.836008,-0.421797 -2.168008,-1.38779 -2.96,-2.146652 -1.394079,-1.335763 -1.439985,-1.441101 -1.439985,-3.304271 0,-1.392835 0.203843,-2.309995 0.737839,-3.319797 l 0.73784,-1.395276 -1.421779,-1.362303 C 56.673848,40.46214 56.568314,40.245708 56.741269,39.179912 l 0.189149,-1.165591 -1.18521,0.206252 c -0.651866,0.113438 -1.941211,0.488216 -2.865211,0.832838 -4.054966,1.512375 -5.213865,1.999388 -5.078906,2.134347 0.07925,0.07925 0.456759,-0.02324 0.838907,-0.22776 0.6569,-0.351562 1.2839,-0.217234 0.878464,0.188203 -0.309341,0.309341 -7.462374,2.616795 -10.269416,3.31275 -5.122307,1.269982 -13.649047,1.781652 -13.649047,0.819047 0,-0.397757 0.671649,-0.488774 3.92,-0.531212 2.155999,-0.02817 3.451999,-0.10929 2.879999,-0.180274 -2.131581,-0.264527 -0.939384,-0.728514 1.871889,-0.728514 3.762166,0 9.158112,-1.363397 13.888111,-3.509118 3.361283,-1.524816 4.427672,-1.907534 6.725121,-2.413589 2.158532,-0.475457 2.274224,-0.549389 2.999715,-1.916952 0.415026,-0.782332 1.035136,-1.511463 1.378021,-1.620291 0.42837,-0.135959 0.555065,-0.364035 0.404933,-0.728959 -0.120173,-0.2921 -0.293374,-1.143617 -0.384892,-1.892261 -0.135319,-1.106947 -0.0093,-1.598565 0.674749,-2.632228 0.46263,-0.699081 1.165417,-1.47704 1.561749,-1.728797 0.639359,-0.406132 4.112885,-1.3494 7.280603,-1.977115 0.616,-0.122067 1.83095,-0.563658 2.699889,-0.981314 1.86233,-0.895131 1.903318,-0.902011 1.66439,-0.279375 -0.232732,0.606489 -0.227719,0.606032 1.703874,-0.155331 1.556219,-0.613404 2.200752,-0.415119 1.051846,0.323592 -0.533333,0.342917 -0.533333,0.351293 0,0.175901 0.308,-0.101289 0.792618,-0.277945 1.076928,-0.392569 0.412607,-0.166348 0.472834,-0.06948 0.298436,0.48 -0.168829,0.531934 -0.0863,0.688744 0.363072,0.689889 0.31986,8.15e-4 1.445564,0.357397 2.501564,0.792404 3.777653,1.556163 11.846933,0.827709 14.443189,-1.303857 l 0.91681,-0.752716 -1.6,0.231344 c -3.680645,0.532183 -6.842708,0.101406 -8.91844,-1.214984 -1.402968,-0.889737 -1.481559,-1.015874 -1.481559,-2.377878 0,-0.889662 0.321395,-2.117096 0.842562,-3.217818 0.463409,-0.978736 0.769153,-1.852928 0.67943,-1.942651 -0.232824,-0.232824 -6.047197,-2.264119 -7.214976,-2.520606 -0.874658,-0.192107 -0.959389,-0.145236 -0.804964,0.445286 0.09493,0.362997 0.299797,0.659994 0.45527,0.659994 0.51405,0 0.293633,1.179764 -0.380547,2.036846 -0.749582,0.952938 -1.400308,1.065335 -2.102489,0.363154 -0.426667,-0.426666 -0.42504,-0.48 0.01464,-0.48 0.560203,0 1.471075,-1.563588 1.471075,-2.525223 0,-1.189058 -0.60545,-1.017982 -1.260764,0.356242 l -0.652814,1.368981 0.09253,-1.2 c 0.07477,-0.969684 -0.01621,-1.2 -0.474062,-1.2 -0.718113,0 -1.356159,2.021045 -0.689334,2.183502 0.288839,0.07037 0.359144,0.377684 0.219623,0.96 -0.246688,1.029593 -0.128351,0.891859 -0.995182,1.15831 -0.933751,0.28702 -0.957736,-0.474977 -0.08467,-2.689965 l 0.63533,-1.611847 h -0.774498 c -0.425974,0 -1.173819,0.151822 -1.661877,0.337381 -0.919134,0.349454 -12.429743,0.434583 -15.954285,0.117993 -1.056,-0.09486 -2.464432,-0.380726 -3.12985,-0.635269 -0.665418,-0.254543 -2.053302,-0.443739 -3.084187,-0.420436 -2.025177,0.04578 -2.585962,-0.140405 -2.585962,-0.858554 0,-0.326916 0.383922,-0.461114 1.319182,-0.461114 1.136324,0 1.263963,-0.06654 0.920818,-0.48 -0.506762,-0.6106109 -0.159269,-0.6044569 1.703238,0.03016 0.823487,0.28059 1.426758,0.624219 1.340604,0.763619 -0.300074,0.48553 1.317599,0.686907 7.753624,0.965216 3.562607,0.154055 6.615519,0.365421 6.78425,0.469702 0.168731,0.104282 1.789871,-0.05017 3.602533,-0.343221 5.175158,-0.836667 7.215067,-0.721487 11.09695,0.626572 1.826661,0.634343 3.816572,1.445626 4.422025,1.802852 0.605453,0.357226 2.307786,0.859979 3.782962,1.117228 1.475176,0.257249 3.013265,0.53519 3.417975,0.617645 2.165192,0.441138 3.455836,0.497419 3.455836,0.1507 0,-0.201898 0.348353,-0.689929 0.774117,-1.084514 0.751632,-0.69659 1.455403,-2.53433 1.468999,-3.835962 0.0078,-0.746887 0.623887,-1.8833241 0.631984,-1.165764 0.0029,0.253749 0.204409,0.357678 0.4849,0.250043 0.572736,-0.219779 0.622343,0.429158 0.155779,2.037833 -0.178321,0.614838 -0.341134,1.801887 -0.361807,2.637887 -0.02067,0.836 -0.162773,1.52 -0.315779,1.52 -0.153006,0 -0.28994,-0.684 -0.304297,-1.52 l -0.0261,-1.52 -0.444843,1.015563 c -0.244663,0.558559 -0.736916,1.108263 -1.093896,1.221564 -1.06722,0.338722 -0.755811,0.629076 1.350946,1.259607 2.274125,0.680623 6.281425,0.822382 10.478765,0.370689 2.52805,-0.272053 2.80303,-0.375177 3.92,-1.470082 0.66068,-0.647628 1.19583,-1.307968 1.18922,-1.467423 -0.007,-0.159455 -0.50198,0.282709 -1.10083,0.982586 -0.59885,0.699877 -1.17036,1.190963 -1.27002,1.091303 -0.16138,-0.161381 0.17278,-0.652824 1.48303,-2.181054 0.21561,-0.251485 0.47028,-1.043485 0.56593,-1.759999 0.18205,-1.363772 0.85638,-1.670507 0.75621,-0.343978 -0.0411,0.544259 0.0739,0.713502 0.4,0.588387 0.7737,-0.296899 0.51534,0.615777 -0.67444,2.382497 -0.78095,1.159652 -1.00429,1.721082 -0.72,1.809956 0.22668,0.07086 1.81323,0.302583 3.52567,0.514936 6.94681,0.861446 13.68646,-1.154733 13.68646,-4.094329 0,-1.772268 -3.16676,-4.0480679 -6.75037,-4.8511724 -1.72458,-0.386486 -6.72873,-0.9468578 -11.64963,-1.3045406 -1.936,-0.1407212 -4.528,-0.4190533 -5.76,-0.618516 -1.232,-0.1994626 -3.104,-0.4965837 -4.16,-0.6602691 -1.056,-0.1636853 -4.655995,-0.3798653 -7.999995,-0.4803998 -3.344,-0.1005346 -6.727999,-0.253713 -7.519999,-0.3403964 -2.741385,-0.3000411 -4.982001,-0.4490774 -9.92,-0.6598366 -4.703259,-0.2007403 -5.225022,-0.1602077 -10.079999,0.7830526 -2.816,0.547113 -7.496,1.3682664 -10.4,1.8247855 -2.904,0.456519 -6.403505,1.1174607 -7.776679,1.4687594 -2.759035,0.7058431 -7.343181,2.8218394 -10.30332,4.7559104 -1.056,0.68996 -2.784,1.787113 -3.84,2.438117 -1.056,0.651005 -2.496,1.593803 -3.2,2.095109 -2.591067,1.845051 -5.510939,3.718068 -6.107076,3.91752 -0.337108,0.112788 -1.237257,0.77805 -2.000332,1.478361 -0.763074,0.700311 -1.555074,1.269397 -1.759999,1.264635 -0.374517,-0.0087 0.770909,-1.15322 3.147408,-3.144911 1.590837,-1.333245 0.289423,-0.741413 -1.76,0.80038 -1.149887,0.865066 -1.730113,1.69114 -2.88,4.100289 -0.792,1.659333 -1.548,3.025054 -1.68,3.034935 -0.464626,0.03478 -0.230295,-0.871085 0.704985,-2.725289 0.519741,-1.030394 0.900351,-1.918076 0.845801,-1.972627 -0.25354,-0.253539 -1.050402,0.332135 -1.630786,1.198588 -0.352,0.525499 -0.856,0.944498 -1.12,0.93111 -0.327969,-0.01663 -0.353308,-0.07546 -0.08,-0.185747 0.22,-0.08877 0.4,-0.348435 0.4,-0.577029 0,-0.335727 -0.217279,-0.340928 -1.13028,-0.02705 -0.621654,0.213715 -1.261144,0.520746 -1.421089,0.682292 -0.159945,0.161546 -0.319386,1.66172 -0.354313,3.33372 -0.03493,1.672 -0.19788,4.12 -0.362118,5.44 -0.34798,2.796768 0.244162,16.098052 0.724153,16.266666 0.167006,0.05867 0.311901,0.562666 0.321989,1.12 0.01009,0.557333 0.272867,2.165333 0.583954,3.573333 l 0.565612,2.56 1.746112,-0.08259 c 0.960361,-0.04542 2.749123,-0.369423 3.975027,-0.72 1.225904,-0.350577 2.925768,-0.637412 3.777475,-0.637412 h 1.54856 l -1.201273,-2.148077 c -0.6607,-1.181442 -1.671789,-3.521442 -2.246865,-5.2 -0.575075,-1.678558 -1.054896,-2.860931 -1.066268,-2.627496 -0.01137,0.233435 0.627324,2.354184 1.419324,4.712775 1.495285,4.452988 1.612469,4.942798 1.182532,4.942798 -0.263359,0 -2.542129,-6.619379 -2.974384,-8.64 -0.131776,-0.616 -0.455859,-1.984 -0.720185,-3.04 -0.678743,-2.711621 -1.029218,-6.069792 -0.606187,-5.808345 0.184388,0.113958 0.432633,1.035455 0.551656,2.047771 0.119023,1.012316 0.408945,2.632574 0.644272,3.600574 l 0.427867,1.76 0.03212,-1.44 c 0.02351,-1.054238 0.115214,-1.311412 0.342314,-0.96 0.17061,0.264 0.312405,0.922778 0.3151,1.463951 0.0067,1.346372 1.245412,4.866758 2.862138,8.134151 1.491444,3.014201 2.114001,3.845354 2.872358,3.834782 0.408076,-0.0057 0.376394,-0.117959 -0.158027,-0.56 -0.921106,-0.761882 -1.916083,-2.298519 -2.171001,-3.352884 -0.325892,-1.347916 0.210049,-1.043587 0.847419,0.481199 0.9308,2.226758 2.683383,3.786829 5.969133,5.313454 1.633023,0.758735 3.663473,1.585715 4.51211,1.837733 1.519928,0.45137 1.563934,0.444071 2.945992,-0.488669 0.868856,-0.586384 1.744283,-1.573905 2.299385,-2.593811 0.591284,-1.086383 1.004149,-1.539149 1.213034,-1.330264 0.376767,0.376767 -0.928203,2.754754 -2.132701,3.886321 -1.41025,1.324862 -0.710201,1.531957 3.185059,0.942235 z m -2.08,-0.774557 c 0,-0.0915 0.33452,-0.703498 0.743378,-1.36 0.408858,-0.656503 0.845579,-1.469721 0.97049,-1.807151 0.163812,-0.442511 0.324262,-0.51636 0.575665,-0.264957 0.251404,0.251404 0.05508,0.801463 -0.704383,1.97351 -0.909314,1.403311 -1.58515,2.025191 -1.58515,1.458598 z m 1.92,-0.473641 c 0,-0.176 0.144,-0.32 0.32,-0.32 0.176,0 0.32,0.144 0.32,0.32 0,0.176 -0.144,0.32 -0.32,0.32 -0.176,0 -0.32,-0.144 -0.32,-0.32 z m 6.079999,-0.327921 c 0,-0.180356 0.345127,-0.459137 0.766949,-0.619513 0.421822,-0.160377 1.316315,-0.948812 1.987764,-1.75208 0.671448,-0.803267 1.334321,-1.460486 1.473051,-1.460486 0.503261,0 0.231601,0.641233 -0.740913,1.748865 -0.546232,0.622124 -0.866273,1.131135 -0.711202,1.131135 0.564071,0 1.719596,-1.021263 2.194396,-1.939426 0.430173,-0.831862 1.448581,-1.334797 1.418616,-0.700574 -0.0405,0.857124 -2.103267,3.376517 -2.618385,3.198001 -0.225652,-0.0782 -0.96838,0.05226 -1.650508,0.289908 -1.482487,0.516491 -2.119768,0.547808 -2.119768,0.10417 z m 7.04,-1.592079 c 0,-0.176 0.144,-0.32 0.32,-0.32 0.176,0 0.32,0.144 0.32,0.32 0,0.176 -0.144,0.32 -0.32,0.32 -0.176,0 -0.32,-0.144 -0.32,-0.32 z M 15.874236,57.733826 c -0.291415,-0.759415 -0.233718,-1.796 0.08887,-1.59663 0.351181,0.217042 0.65224,2.102802 0.335709,2.102802 -0.126688,0 -0.317748,-0.227778 -0.424578,-0.506172 z m 6.082224,-4.102189 c -0.284054,-0.598599 -0.516461,-1.282935 -0.516461,-1.520746 0,-0.237811 -0.358297,-1.872048 -0.796216,-3.631638 -0.825912,-3.318577 -1.001044,-4.959255 -0.52937,-4.959255 0.150928,0 0.363457,0.828 0.472288,1.84 0.164373,1.528474 1.050664,5.357731 1.99975,8.64 0.311062,1.07576 -0.04293,0.868778 -0.629991,-0.368361 z m 24.963903,-3.29794 c -0.131799,-0.131799 -0.954921,-0.314799 -1.829162,-0.406667 -2.008111,-0.211018 -2.194322,-0.780276 -0.291203,-0.890226 1.449064,-0.08372 2.985419,0.455758 2.948096,1.035194 -0.02633,0.408772 -0.523478,0.565952 -0.827731,0.261699 z m 9.032458,-2.906163 c -0.465947,-0.477145 -1.257947,-1.186355 -1.76,-1.576024 -0.799913,-0.620852 -0.833659,-0.709771 -0.272824,-0.718865 0.758709,-0.0123 3.36,2.114602 3.36,2.747251 0,0.649106 -0.377061,0.520587 -1.327176,-0.452362 z M 25.919999,46.726095 c 0,-0.383347 1.544917,-0.807846 1.845635,-0.507128 0.278048,0.278048 -0.559574,0.809778 -1.285635,0.816131 -0.308,0.0027 -0.56,-0.136356 -0.56,-0.309003 z m 20.494973,-0.480473 c -1.311764,-0.393678 -2.447043,-0.90183 -2.522842,-1.129227 -0.09818,-0.294551 0.08156,-0.355579 0.625026,-0.212216 0.419563,0.110678 1.734842,0.452408 2.922842,0.759402 1.249305,0.322835 2.16,0.730664 2.16,0.967293 0,0.520059 -0.282206,0.485924 -3.185026,-0.385252 z m 4.794293,-1.113125 c -0.258903,-0.163735 -0.377755,-0.390678 -0.264116,-0.504317 0.279792,-0.279792 1.534848,0.140005 1.534848,0.513382 0,0.380763 -0.66179,0.376042 -1.270732,-0.0091 z M 25.293264,41.247528 c -0.991499,-1.368725 -1.466295,-2.461166 -1.189829,-2.737633 0.08903,-0.08903 0.398291,0.336343 0.687247,0.945272 0.288956,0.60893 0.877262,1.437726 1.307346,1.841769 0.819773,0.770137 1.000846,1.263062 0.463978,1.263062 -0.174896,0 -0.74583,-0.590612 -1.268742,-1.31247 z m 10.066734,0.754884 c 0.176,-0.176 1.249696,-0.411439 2.385991,-0.523198 1.377328,-0.135465 1.959325,-0.09653 1.745991,0.116802 -0.176,0.176 -1.249696,0.411439 -2.385991,0.523198 -1.377327,0.135465 -1.959324,0.09653 -1.745991,-0.116802 z m -2.297489,-0.495434 c -0.388715,-0.628954 0.597566,-0.871115 4.759214,-1.168527 2.397861,-0.171363 4.768915,-0.398708 5.269011,-0.50521 0.65416,-0.139312 0.774594,-0.106324 0.429264,0.117578 -0.937812,0.60805 -10.192329,1.985197 -10.457489,1.556159 z m -6.953462,-1.26698 c -0.61608,-0.952485 -0.980885,-2.48 -0.59228,-2.48 0.168383,0 0.569705,0.612 0.891828,1.36 0.322123,0.748 0.643966,1.468 0.715207,1.6 0.322547,0.597634 -0.59998,0.16126 -1.014755,-0.48 z m 15.323291,-0.867605 c 0.104561,-0.169183 0.725059,-0.40778 1.378885,-0.530216 2.261443,-0.423476 5.395124,-2.077507 9.028774,-4.765597 2.545761,-1.883294 3.547576,-2.475673 3.785099,-2.238149 0.115263,0.115263 -0.04393,0.351435 -0.353764,0.524827 -1.009137,0.564742 -4.854286,3.526639 -5.535801,4.264198 -1.012241,1.095482 -4.959682,3.211239 -5.216384,2.795888 -0.14739,-0.238483 -0.616561,-0.25536 -1.487232,-0.0535 -1.627676,0.377367 -1.831428,0.377691 -1.599577,0.0025 z m 12.53648,-3.06423 c 0.103805,-0.270509 0.632244,-0.721182 1.17431,-1.001496 0.542067,-0.280313 1.189759,-0.713844 1.439317,-0.963402 0.655707,-0.655707 0.900808,-0.218255 0.268924,0.479969 -0.292255,0.322937 -0.531372,0.726892 -0.531372,0.897677 0,0.170786 -0.478223,0.483447 -1.062719,0.694803 -1.373757,0.496757 -1.515804,0.4849 -1.28846,-0.107551 z m -0.208821,-5.256628 c 0,-0.169655 0.54,-0.685653 1.2,-1.146662 l 1.2,-0.838199 -1.12,0.220375 c -0.804408,0.158279 -1.026563,0.121948 -0.788402,-0.128934 0.376185,-0.396281 5.293239,-1.719945 5.525679,-1.487506 0.193132,0.193132 -1.405767,0.807816 -2.118109,0.81429 -0.296542,0.0027 -0.755168,0.151069 -1.019168,0.32972 -0.356127,0.240995 -0.2529,0.272069 0.4,0.12041 1.318866,-0.306353 1.061548,0.09635 -0.54371,0.850914 -0.78304,0.368072 -1.592672,0.87281 -1.799182,1.121639 -0.431181,0.519542 -0.937108,0.597259 -0.937108,0.143953 z M 20.037928,30.78137 c -0.212611,-0.344013 1.284562,-2.200941 1.556983,-1.931109 0.265597,0.263074 -0.705984,2.189738 -1.104244,2.189738 -0.161094,0 -0.364826,-0.116383 -0.452739,-0.258629 z m -1.378687,-0.941371 c 0.256075,-1.257222 1.186469,-3.380956 1.391397,-3.176028 0.09523,0.09523 0.02773,0.650795 -0.150006,1.234587 -0.177735,0.583793 -0.41083,1.457441 -0.51799,1.941441 -0.10716,0.484 -0.354093,0.88 -0.54874,0.88 -0.216195,0 -0.284158,-0.342418 -0.174661,-0.88 z m 35.420756,-2.279287 c 0,-0.153607 0.684,-0.359614 1.52,-0.457792 0.836,-0.09818 2.527946,-0.404499 3.759881,-0.680713 4.34057,-0.973208 4.130184,-0.406565 -0.25194,0.678562 -3.067361,0.759558 -5.027941,0.938907 -5.027941,0.459943 z m -33.279998,-0.29666 c 0,-0.510794 3.759664,-4.402602 4.012808,-4.153849 0.128847,0.126613 -0.599025,1.134613 -1.617494,2.24 -1.896159,2.057984 -2.395314,2.456807 -2.395314,1.913849 z M 113.91999,16.178885 c 0,-0.480373 0.57451,-0.991045 0.82883,-0.73673 0.22319,0.223193 -0.21868,1.197844 -0.54306,1.197844 -0.15717,0 -0.28577,-0.207501 -0.28577,-0.461114 z M 51.519997,10.24 c 0,-0.176 0.135502,-0.3200004 0.301115,-0.3200004 0.165613,0 0.390111,0.1440004 0.498885,0.3200004 0.108774,0.176 -0.02673,0.32 -0.301114,0.32 -0.274387,0 -0.498886,-0.144 -0.498886,-0.32 z M 77.919996,6.7199997 c -0.108774,-0.176 0.01823,-0.32 0.282229,-0.32 0.264,0 0.568997,0.144 0.677771,0.32 0.108774,0.176 -0.01823,0.32 -0.282229,0.32 -0.264,0 -0.568997,-0.144 -0.677771,-0.32 z m 9.017872,50.6881783 c 0.63767,-0.174753 1.485171,-1.634855 2.024677,-3.48818 0.102468,-0.352 0.395813,-0.64 0.651878,-0.64 0.327666,0 0.55031,-0.595475 0.751647,-2.010332 0.265033,-1.862471 0.232122,-2.067761 -0.447474,-2.791158 l -0.733548,-0.780826 -5.952526,0.19344 c -5.920571,0.192402 -5.973999,0.188021 -9.952526,-0.816026 -2.2,-0.555207 -4.255291,-1.088983 -4.567313,-1.186168 -0.522265,-0.162669 -0.516147,-0.07853 0.07706,1.059554 0.696571,1.336399 0.557554,2.568571 -0.466044,4.130778 -0.432257,0.659708 -0.750976,0.760738 -2.399894,0.760738 -1.045792,0 -2.568126,-0.226346 -3.382965,-0.502991 -1.962176,-0.666176 -2.103151,-0.410151 -0.342351,0.621747 1.973751,1.156695 2.656245,1.396782 7.40151,2.603698 2.287999,0.581932 5.527999,1.578651 7.199999,2.21493 2.939909,1.118783 3.145359,1.151361 6.24,0.98946 1.76,-0.09208 3.514042,-0.253475 3.897872,-0.358664 z M 74.879996,55.07918 c 0,-0.15445 0.216,-0.460082 0.48,-0.679182 0.521027,-0.432414 0.586156,-0.328982 0.285764,0.453828 -0.205617,0.535829 -0.765764,0.700673 -0.765764,0.225354 z m -0.96,-0.540533 c 0,-0.09974 0.366881,-0.662357 0.815292,-1.250253 0.44841,-0.587896 0.899819,-1.589785 1.00313,-2.22642 0.190288,-1.17261 0.561583,-1.6921 0.861987,-1.206036 0.374781,0.606408 -1.714198,4.86406 -2.386508,4.86406 -0.161645,0 -0.293901,-0.08161 -0.293901,-0.181351 z m -0.64,-0.71749 c 0,-0.131315 0.215756,-0.54679 0.479457,-0.923276 0.263702,-0.376487 0.591948,-1.225943 0.729437,-1.887681 0.22413,-1.078742 1.031106,-1.962234 1.031106,-1.128873 0,0.798196 -1.345764,3.835434 -1.771889,3.998954 -0.257461,0.0988 -0.468111,0.07219 -0.468111,-0.05912 z m -5.86964,-3.928496 c 1.064699,-0.392167 1.270382,-1.972315 0.433078,-3.327101 -0.509466,-0.824333 -1.034596,-1.201637 -2.025602,-1.455388 -0.735809,-0.188407 -2.324246,-0.639718 -3.52986,-1.002913 -2.664346,-0.802642 -3.093247,-0.55012 -3.334764,1.963395 -0.135305,1.408149 -0.05031,1.753141 0.604678,2.454459 1.421943,1.522516 2.779424,2.004194 5.082111,1.8033 1.144,-0.09981 2.390661,-0.295895 2.770359,-0.435752 z m -0.850359,-0.631548 c 0,-0.186387 0.144,-0.249889 0.32,-0.141115 0.176,0.108774 0.32,0.261272 0.32,0.338885 0,0.07761 -0.144,0.141115 -0.32,0.141115 -0.176,0 -0.32,-0.152498 -0.32,-0.338885 z m 24.479998,-3.060047 c 4.442913,-0.860958 5.794475,-2.4959 5.528254,-6.687356 -0.17153,-2.700621 -0.802206,-4.200314 -1.701862,-4.046886 -0.344516,0.05875 -1.562392,0.220624 -2.706392,0.359711 -1.144,0.139088 -3.087999,0.493772 -4.319999,0.788186 -4.073807,0.97353 -13.214101,0.962503 -17.919999,-0.02162 l -0.96,-0.20076 0.68322,0.763828 c 0.92372,1.032701 1.170095,1.984463 0.910876,3.51877 -0.279556,1.654677 -1.705212,3.165057 -2.987514,3.165057 -0.514243,0 -2.177272,-0.36 -3.69562,-0.8 -2.698423,-0.781972 -4.018626,-1.000997 -3.617836,-0.600207 0.109885,0.109885 1.465885,0.526464 3.013333,0.925729 1.547447,0.399265 4.253541,1.115363 6.013541,1.591328 7.297952,1.97362 15.558527,2.445953 21.759998,1.244218 z M 78.719996,45.667885 c 0,-0.105217 0.275703,-0.667535 0.612672,-1.249596 0.33697,-0.58206 0.793511,-1.676123 1.014536,-2.431252 0.493586,-1.686334 1.35859,-1.747089 1.515897,-0.106472 0.120387,1.25557 -0.387356,2.643091 -1.254307,3.42767 -0.947899,0.857837 -0.998603,0.383057 -0.100275,-0.938951 0.49943,-0.734978 0.772943,-1.527976 0.71114,-2.06181 -0.08734,-0.75441 -0.182138,-0.647036 -0.727319,0.823809 -0.521693,1.407477 -1.772344,3.197426 -1.772344,2.536602 z m 14.719999,-0.810581 c 0,-0.170293 0.432,-0.77208 0.96,-1.337306 0.528,-0.565226 0.96,-1.291956 0.96,-1.614956 0,-0.323 0.155719,-0.683512 0.346041,-0.801138 0.528746,-0.326783 0.23315,1.105363 -0.531708,2.576094 -0.605519,1.164341 -1.734333,1.930606 -1.734333,1.177306 z M 77.759996,43.874235 c 0,-1.355978 0.78077,-1.491794 0.879808,-0.153045 0.05777,0.7809 -0.05269,1.078808 -0.4,1.078808 -0.315843,0 -0.479808,-0.31636 -0.479808,-0.925763 z m 15.519999,-0.354237 c 0.108774,-0.176 0.333273,-0.32 0.498886,-0.32 0.165613,0 0.301114,0.144 0.301114,0.32 0,0.176 -0.224498,0.32 -0.498885,0.32 -0.274387,0 -0.409889,-0.144 -0.301115,-0.32 z m -14.179999,-3.22 c 0.077,-0.231 0.329,-0.483 0.56,-0.56 0.24,-0.08 0.36,0.04 0.28,0.28 -0.077,0.231 -0.329,0.483 -0.56,0.56 -0.24,0.08 -0.36,-0.04 -0.28,-0.28 z m -10.203737,1.7 c 1.387551,-2.022415 1.400615,-2.70328 0.07421,-3.867877 -0.634009,-0.556668 -1.058101,-1.012122 -0.942427,-1.012122 0.115675,0 0.04438,-0.199947 -0.15844,-0.444325 -0.202816,-0.244379 -1.14283,-0.541039 -2.08892,-0.659245 -0.94609,-0.118206 -2.449865,-0.492185 -3.341722,-0.831064 -2.092948,-0.795258 -2.966874,-0.491715 -3.674248,1.276187 -0.623589,1.558503 -0.697577,4.352829 -0.124717,4.710234 0.22,0.137257 0.832,0.282128 1.36,0.321935 0.528,0.03981 2.256,0.433124 3.84,0.874038 3.857898,1.073865 4.078175,1.057844 5.056262,-0.367761 z m 13.238938,-7.568362 c 0.437077,-1.038599 0.911683,-2.478599 1.054681,-3.2 l 0.259996,-1.311637 0.03506,1.370278 c 0.01928,0.753653 -0.180265,1.905653 -0.443441,2.56 -0.424736,1.056044 -0.424723,1.119909 1.22e-4,0.568393 0.263243,-0.34173 0.65138,-1.45773 0.862526,-2.48 0.211147,-1.022269 0.499092,-1.858671 0.639878,-1.858671 0.342385,0 0.324062,0.195679 -0.204141,2.180027 -0.248887,0.935015 -0.68615,2.056589 -0.971696,2.492387 -0.504818,0.77045 -0.501043,0.781037 0.136507,0.382881 0.360625,-0.225214 0.907597,-1.022197 1.215494,-1.771074 0.307896,-0.748876 0.703812,-1.310311 0.879812,-1.247633 0.637677,0.227093 0.114211,1.663894 -1.049788,2.881437 l -1.190212,1.244964 1.51132,-0.194183 c 2.721928,-0.349729 9.978636,-2.16066 11.370738,-2.837597 2.100672,-1.021495 2.669427,-2.22633 2.799838,-5.931103 0.151338,-4.299272 -0.7195,-6.666205 -1.579708,-4.293638 -0.856722,2.362951 -2.559656,3.468431 -6.977187,4.529322 -2.103463,0.505156 -3.043323,0.5545 -6.260918,0.328707 -2.706353,-0.189917 -4.190576,-0.453292 -5.205002,-0.923627 -2.432579,-1.127854 -5.973146,-1.592977 -8.69908,-1.142793 -1.25514,0.207284 -1.666687,0.781923 -0.56,0.781923 0.352,0 1.229494,0.589494 1.949987,1.309987 1.193604,1.193605 1.29127,1.413935 1.099307,2.48 -0.115874,0.643507 -0.504298,1.786318 -0.863165,2.539581 -0.888793,1.865577 -2.10744,2.365657 -4.811865,1.974577 -2.463743,-0.356275 -3.365115,-0.336272 -1.854264,0.04115 0.616,0.153882 3.208,0.496425 5.759999,0.761208 6.728033,0.698067 7.046857,0.723086 8.750259,0.686654 l 1.550258,-0.03316 z m -1.259041,-0.403755 c -0.08584,-0.147335 -0.05527,-0.545354 0.06793,-0.884486 0.214818,-0.591327 0.233283,-0.592413 0.450448,-0.02649 0.229203,0.597292 -0.230474,1.405116 -0.518373,0.910976 z m 14.803839,-1.338286 c 0,-0.148722 0.282579,-0.526135 0.627954,-0.838694 0.944497,-0.854759 1.478862,-2.926028 1.596897,-6.189787 0.0083,-0.230387 0.159149,-0.329889 0.335149,-0.221115 0.176,0.108774 0.32,1.207327 0.32,2.441229 0,1.977187 -0.115765,2.411718 -0.975373,3.661115 -0.866965,1.26009 -1.904627,1.885126 -1.904627,1.147252 z m -25.931632,1.404421 c 0.212702,-0.25629 0.294582,-0.615083 0.181955,-0.797318 -0.112627,-0.182234 0.162976,-0.699087 0.612451,-1.148562 0.449475,-0.449476 0.817227,-1.026683 0.817227,-1.282683 0,-0.256 0.144,-0.465454 0.32,-0.465454 0.176,0 0.32,-0.260325 0.32,-0.5785 0,-0.660705 -3.355195,-3.2615 -4.207548,-3.2615 -0.304005,0 -1.533673,0.218499 -2.732594,0.485553 -1.198922,0.267054 -2.474781,0.5505 -2.835244,0.629879 -0.817604,0.18005 -2.066446,2.344068 -2.059152,3.568137 0.0048,0.804421 0.222603,1.010454 1.782046,1.685702 1.592948,0.689756 4.910149,1.471863 6.73331,1.587534 0.37445,0.02376 0.854847,-0.166497 1.067549,-0.422788 z M 16.879999,25.05686 c 0.396,-0.09431 0.72,-0.288398 0.72,-0.431309 0,-0.330585 -0.925886,-1.265552 -1.253261,-1.265552 -0.341434,0 -1.164644,0.994297 -1.422855,1.718566 -0.18007,0.505089 -0.100212,0.563521 0.51136,0.374165 0.398616,-0.12342 1.048756,-0.301562 1.444756,-0.39587 z m 77.966555,-2.311908 c 1.631354,-1.075463 2.433441,-2.260321 2.433441,-3.594725 0,-1.208185 -0.0215,-1.230236 -1.2,-1.230665 -0.66,-2.41e-4 -2.352,-0.20053 -3.76,-0.445088 -1.408,-0.244558 -3.461373,-0.54666 -4.563052,-0.671337 l -2.003052,-0.226686 -0.473768,1.133887 c -0.601282,1.439068 -0.448798,1.798104 1.153158,2.715208 1.654855,0.947388 1.414434,1.26503 -0.322361,0.425902 -1.71182,-0.827061 -1.789064,-0.139547 -0.110924,0.987278 2.093763,1.405904 2.423619,1.501654 5.199999,1.509434 2.148712,0.006 2.914608,-0.120672 3.646559,-0.603208 z m -6.493017,-0.05211 c -0.421553,-0.168625 -0.686283,-0.386767 -0.588291,-0.484759 0.09799,-0.09799 0.586899,0.04333 1.086459,0.314062 1.005175,0.544736 0.699095,0.649614 -0.498168,0.170697 z M 86.239996,21.76 c -0.250299,-0.404991 0.173321,-0.404991 0.8,0 0.41366,0.267328 0.405213,0.310877 -0.06112,0.3151 -0.297613,0.0027 -0.630111,-0.1391 -0.738885,-0.3151 z m -74.43665,0.45343 C 11.984654,22.046659 10.908796,20.48 10.612962,20.48 c -0.461782,0 -1.6529624,1.297568 -1.6529624,1.800593 0,0.405043 0.2486411,0.454584 1.3599994,0.270977 0.748,-0.123576 1.415506,-0.275739 1.483347,-0.33814 z m 65.243529,-7.353217 c -0.107264,-0.107265 -0.367514,0.141307 -0.578333,0.552381 -0.366438,0.714513 -0.357855,0.723096 0.195026,0.195025 0.318083,-0.303809 0.490571,-0.640142 0.383307,-0.747406 z"
       id="path1" />
  </g>
</svg>
